<svg width="1080" height="1080" viewBox="0 0 1080 1080" fill="none" xmlns="http://www.w3.org/2000/svg">
<rect width="1080" height="1080" rx="540" fill="#780000"/>
<path d="M399.575 256.368L402.67 273.087C400.063 280.644 398.803 284.428 396.379 292.003C376.42 296.193 356.733 300.944 337.058 306.317C343.289 328.181 349.519 350.045 355.749 371.909C376.475 366.287 397.185 361.429 418.25 357.253C420.739 370.705 421.985 377.431 424.474 390.882C393.831 396.978 364.058 404.754 334.352 414.406C322.213 418.532 311.413 415.162 307.889 405.84C295.777 373.787 283.665 341.734 271.554 309.681C268.03 300.357 275.62 289.884 290.336 284.881C326.264 273.082 362.463 263.63 399.575 256.368Z" fill="#DC2F02"/>
<path d="M509.142 293.683C508.402 277.153 507.663 260.623 506.923 244.094C528.397 243.371 549.728 243.295 571.206 243.863L566.071 380.566C548.401 379.903 530.703 379.966 513.037 380.756L510.671 327.848C501.409 328.262 496.781 328.546 487.534 329.269L491.657 382.069C473.997 383.447 456.396 385.554 438.909 388.38C431.629 343.365 424.35 298.351 417.07 253.336C438.354 250.136 459.569 247.596 481.006 245.685C482.295 262.18 483.583 278.676 484.871 295.173C494.571 294.415 499.427 294.117 509.142 293.683Z" fill="#DC2F02"/>
<path d="M585.511 381.59C588.597 336.095 591.683 290.599 594.769 245.104C616.219 246.798 637.455 249.119 658.763 252.1C651.945 297.187 645.124 342.275 638.305 387.362C620.796 384.715 603.178 382.788 585.511 381.59Z" fill="#DC2F02"/>
<path d="M658.77 355.255C683.21 337.959 708.267 322.301 734.479 307.812C734.965 306 735.209 305.093 735.695 303.282C717.247 298.326 698.608 294.08 679.833 290.552C677.333 283.005 676.038 279.234 673.354 271.703C674.523 265.003 675.109 261.654 676.278 254.954C723.928 263.845 770.059 276.388 815.651 292.828C810.723 306.008 808.258 312.597 803.33 325.776C775.528 337.572 748.782 350.673 722.486 365.508C721.99 367.317 721.742 368.221 721.246 370.031C741.754 375.926 761.857 382.463 781.91 389.754C777.075 402.55 774.657 408.948 769.82 421.746C731.478 407.841 692.838 397.261 652.754 389.716C655.161 375.932 656.363 369.04 658.77 355.255Z" fill="#DC2F02"/>
<path d="M376.616 556.609C383.718 541.058 391.681 525.901 400.429 511.209C400.129 510.191 399.979 509.682 399.679 508.663C387.052 512.375 380.779 514.437 368.352 518.978C364.909 516.046 363.168 514.592 359.65 511.713C358.29 508.113 357.61 506.313 356.25 502.712C381.801 492.93 408.309 485.323 435.079 479.722C436.71 487.515 437.524 491.412 439.155 499.205C429.229 513.158 420.048 527.644 411.7 542.595C411.996 543.615 412.142 544.125 412.438 545.145C426.668 541.027 433.849 539.254 448.29 536.276C449.852 543.857 450.634 547.648 452.199 555.229C428.785 560.48 406.214 567.033 383.613 575.126C380.814 567.72 379.413 564.015 376.616 556.609Z" fill="#DC2F02"/>
<path d="M498.876 513.013C496.804 503.964 495.738 499.444 493.552 490.415C492.009 490.567 491.238 490.646 489.696 490.809C489.383 500.095 489.257 504.737 489.059 514.018C492.982 513.575 494.946 513.375 498.876 513.013ZM520.045 469.014C526.455 491.274 532.32 513.709 537.367 536.321C537.419 540.17 537.445 542.094 537.498 545.941C524.973 546.111 518.71 546.412 506.218 547.449C504.961 541.293 504.32 538.219 503.012 532.072C497.349 532.565 494.521 532.854 488.87 533.519C488.776 539.811 488.741 542.956 488.702 549.244C476.306 550.759 470.123 551.733 457.829 554.106C457.099 550.327 456.734 548.437 456.004 544.659C456.467 521.495 457.506 498.326 459.371 475.229C479.596 472.293 499.645 470.239 520.045 469.014Z" fill="#DC2F02"/>
<path d="M581.674 489.369C581.243 495.149 581.027 498.038 580.596 503.816C586.037 504.222 588.757 504.463 594.188 505.018C594.778 499.254 595.073 496.372 595.664 490.608C590.073 490.035 587.275 489.788 581.674 489.369ZM619.618 473.959C628.089 475.185 633.365 480.175 632.403 485.732C630.33 497.718 629.293 503.711 627.218 515.698C626.596 519.293 622.125 522.661 617 522.878C620 531.039 621.414 535.129 624.074 543.326C623.405 547.115 623.07 549.01 622.4 552.801C610.303 550.663 604.225 549.802 592.04 548.492C589.711 538.543 588.456 533.574 585.763 523.655C583.121 523.42 581.798 523.312 579.154 523.115C578.435 532.731 578.076 537.54 577.358 547.155C564.86 546.222 558.595 545.972 546.071 545.906C546.21 520.102 546.348 494.298 546.486 468.495C571.087 469.001 595.225 470.805 619.618 473.959Z" fill="#DC2F02"/>
<path d="M676.642 505.573C672.621 520.479 670.611 527.931 666.591 542.836C671.644 544.199 674.162 544.915 679.184 546.42C683.616 531.634 685.832 524.238 690.263 509.452C684.831 507.822 682.106 507.047 676.642 505.573ZM643.24 556.988C635.946 555.343 631.633 550.472 632.719 544.938L643.926 487.86C645.012 482.325 651.726 479.547 660.27 481.474C679.469 486.106 698.216 491.447 716.975 497.625C725.317 500.51 729.63 506.437 727.637 511.712C720.783 529.851 713.931 547.989 707.076 566.127C705.083 571.403 698.789 573.245 691.666 570.781C675.796 565.29 659.622 560.683 643.24 556.988Z" fill="#DC2F02"/>
<path d="M537.853 210.119C507.778 209.517 477.85 211.663 448.054 215.428C422.693 218.632 397.593 223.288 372.629 228.969C339.333 236.546 306.954 246.901 274.956 258.603C268.273 261.047 261.802 264.084 255.258 266.904C252.339 268.163 250.315 267.808 249.193 264.445C247.722 260.037 246.162 255.642 244.335 251.374C243.15 248.608 245.384 247.607 246.726 247.152C257.012 243.656 266.784 238.323 276.911 235.248C297.362 229.037 317.53 221.825 338.256 216.396C350.127 213.286 362.035 209.711 373.932 207.166C386.938 204.385 400.19 202.034 413.401 199.855C470.423 190.45 527.733 187.811 585.392 190.772C610.113 192.042 634.634 195.126 659.109 198.506C672.157 200.307 685.029 203.388 697.973 205.933C712.039 208.698 725.871 212.398 739.739 216.016C762.68 221.997 785.024 229.684 807.264 237.793C816.214 241.055 825.002 244.67 833.768 248.367C835.051 248.909 836.7 248.927 835.684 250.983C833.398 255.612 832.347 260.726 829.84 265.303C828.618 267.536 827.293 268.029 825.266 267.113C810.938 260.646 796.176 255.304 781.343 250.164C761.855 243.41 742.099 237.567 722.103 232.472C704.961 228.104 687.709 224.272 670.296 221.25C650.789 217.864 631.16 215.367 611.451 213.252C586.944 210.622 562.415 210.311 537.853 210.119Z" fill="#DC2F02"/>
<path d="M661.779 621.426C661.934 621.001 662.089 620.556 662.242 620.131C662.242 620.11 662.263 620.091 662.263 620.073C662.533 619.356 662.804 618.622 663.152 617.925C663.578 617.075 662.881 617.075 662.359 616.843C658.742 615.333 655.107 613.825 651.393 612.491C642.206 609.145 632.961 605.972 623.484 603.496C617.739 602.008 612.015 600.48 606.212 599.338C600.854 598.293 595.535 597.018 590.14 596.263C580.024 594.871 569.87 593.594 559.657 593.071C535.81 591.853 512.117 592.937 488.54 596.824C483.066 597.732 477.592 598.7 472.216 599.842C467.283 600.885 462.372 602.375 457.458 603.651C448.89 605.895 440.553 608.874 432.102 611.427C427.905 612.703 423.863 614.909 419.607 616.359C419.067 616.533 418.138 616.959 418.622 618.099C419.22 619.472 419.743 620.885 420.226 622.317L421.039 624.307C421.542 624.908 422.238 624.888 423.147 624.502C425.855 623.341 428.524 622.084 431.289 621.078C434.694 619.841 438.098 618.641 441.521 617.481V617.461C451.424 614.115 461.443 611.156 471.675 608.835C482.002 606.495 492.369 604.58 502.872 603.245C515.192 601.698 527.552 600.808 539.988 601.059C550.161 601.137 560.296 601.272 570.431 602.356C578.573 603.226 586.696 604.251 594.762 605.663C601.957 606.901 609.094 608.487 616.192 610.285C624.45 612.393 632.613 614.811 640.678 617.596C640.872 617.654 641.065 617.731 641.258 617.79V617.809L661.779 621.426Z" fill="#DC2F02"/>
<path d="M427.207 616.784C428.349 616.358 429.548 616.048 430.651 615.527C437.497 612.2 439.412 612.103 441.52 617.461V617.481C441.887 618.408 442.255 619.492 442.662 620.768C446.626 633.243 452.506 644.946 457.476 656.994C465.135 675.524 473.123 693.917 480.957 712.368C487.881 728.712 494.766 745.094 501.671 761.456C510.626 782.635 519.562 803.813 528.517 824.993C531.92 833.018 535.712 840.891 538.362 849.227C538.729 850.406 539.232 852.127 540.992 852.05C542.461 851.992 542.674 850.445 543.294 849.44C544.068 848.144 544.318 846.384 546.505 846.558C547.955 846.655 548.419 845.378 548.032 844.411C545.75 838.396 549.985 833.967 551.939 829.228C563.003 802.305 574.433 775.536 585.805 748.749C594.78 727.57 603.89 706.45 612.864 685.272C622.38 662.816 631.876 640.341 641.256 617.81V617.79C641.663 616.823 642.069 615.874 642.474 614.908C643.79 611.774 644.739 610.111 648.509 612.239C652.088 614.269 656.169 615.392 660.017 616.939C661.817 617.655 661.97 621.232 661.701 621.871C656.769 633.204 652.088 644.635 647.292 656.008C640.347 672.506 633.366 688.985 626.383 705.463C620.659 718.945 614.875 732.406 609.17 745.907C601.24 764.609 593.387 783.351 585.457 802.053C576.541 823.038 567.509 843.966 558.65 864.97C552.964 878.413 547.452 891.932 541.263 906.903C536.718 896.477 532.617 887.504 528.865 878.375C523.217 864.661 516.99 851.2 511.438 837.467C504.805 821.008 497.784 804.723 490.841 788.399C485.038 774.764 479.004 761.224 473.278 747.57C466.219 730.743 459.7 713.684 452.332 696.992C446.51 683.859 441.268 670.475 435.214 657.42C431.23 648.794 421.54 625.313 421.038 624.308C421.038 624.308 421.404 618.969 427.207 616.784Z" fill="#DC2F02"/>
<path d="M541.081 422.597C569.678 421.601 598.472 424.791 627.057 429.362C651.745 433.309 676.066 439.16 699.896 446.97C713.808 451.531 727.521 456.558 741.15 461.876C744.64 463.236 746.235 464.494 743.863 468.418C741.809 471.82 740.42 475.688 739.183 479.496C738.321 482.151 737.354 482.866 734.687 481.683C715.661 473.247 695.914 466.819 675.938 461.102C666.15 458.301 656.031 456.823 646.119 454.609C638.343 452.87 630.742 450.87 622.733 450.039C611.994 448.924 601.429 446.12 590.688 445.002C577.968 443.676 565.142 442.785 552.358 442.753C529.453 442.695 506.496 442.622 483.729 445.69C469.24 447.642 454.662 449.156 440.366 452.332C407.872 459.552 375.83 468.292 345.213 481.614C343.002 482.577 341.939 482.688 341.024 479.945C339.534 475.485 337.644 471.119 335.501 466.928C334.239 464.459 334.961 463.687 337.163 462.742C349.973 457.256 362.998 452.328 376.25 448.067C389.718 443.736 403.335 439.883 417.117 436.627C433.314 432.799 449.641 429.68 466.131 427.463C490.842 424.142 515.631 421.823 541.081 422.597Z" fill="#DC2F02"/>
<path d="M540.757 704.95C518.805 704.919 500.159 686.029 500.319 663.979C500.477 642.086 518.902 623.868 540.936 623.814C563.208 623.76 581.724 641.997 581.889 664.151C582.055 686.298 563.22 704.98 540.757 704.95Z" fill="#DC2F02"/>
<path d="M399.575 239.751L402.67 256.47C400.063 264.027 398.803 267.811 396.379 275.386C376.42 279.575 356.733 284.326 337.058 289.699C343.289 311.563 349.519 333.427 355.749 355.291C376.475 349.67 397.185 344.812 418.25 340.636C420.739 354.087 421.985 360.814 424.474 374.265C393.831 380.361 364.058 388.136 334.352 397.789C322.213 401.915 311.413 398.545 307.889 389.223C295.777 357.17 283.665 325.117 271.554 293.064C268.03 283.74 275.62 273.267 290.336 268.264C326.264 256.465 362.463 247.012 399.575 239.751Z" fill="#FF9710"/>
<path d="M509.142 277.065C508.402 260.535 507.663 244.006 506.923 227.476C528.397 226.753 549.728 226.677 571.206 227.245L566.071 363.949C548.401 363.285 530.703 363.349 513.037 364.138L510.671 311.23C501.409 311.645 496.781 311.928 487.534 312.651L491.657 365.451C473.997 366.829 456.396 368.936 438.909 371.763C431.629 326.748 424.35 281.733 417.07 236.718C438.354 233.518 459.569 230.979 481.006 229.067C482.295 245.562 483.583 262.059 484.871 278.555C494.571 277.798 499.427 277.499 509.142 277.065Z" fill="#FF9710"/>
<path d="M585.511 364.973C588.597 319.478 591.683 273.982 594.769 228.488C616.219 230.181 637.455 232.502 658.763 235.484C651.945 280.57 645.124 325.659 638.305 370.745C620.796 368.098 603.178 366.171 585.511 364.973Z" fill="#FF9710"/>
<path d="M658.77 338.638C683.21 321.341 708.267 305.683 734.479 291.194C734.965 289.382 735.209 288.475 735.695 286.664C717.247 281.709 698.608 277.462 679.833 273.935C677.333 266.387 676.038 262.616 673.354 255.085C674.523 248.385 675.109 245.036 676.278 238.336C723.928 247.227 770.059 259.77 815.651 276.21C810.723 289.39 808.258 295.98 803.33 309.159C775.528 320.954 748.782 334.055 722.486 348.89C721.99 350.7 721.742 351.604 721.246 353.413C741.754 359.309 761.857 365.846 781.91 373.136C777.075 385.932 774.657 392.331 769.82 405.128C731.478 391.224 692.838 380.643 652.754 373.099C655.161 359.314 656.363 352.422 658.77 338.638Z" fill="#FF9710"/>
<path d="M376.616 539.991C383.718 524.44 391.681 509.283 400.429 494.592C400.129 493.573 399.979 493.064 399.679 492.046C387.052 495.757 380.779 497.819 368.352 502.36C364.909 499.428 363.168 497.974 359.65 495.095C358.29 491.495 357.61 489.696 356.25 486.095C381.801 476.312 408.309 468.705 435.079 463.104C436.71 470.898 437.524 474.794 439.155 482.588C429.229 496.541 420.048 511.026 411.7 525.977C411.996 526.997 412.142 527.507 412.438 528.527C426.668 524.41 433.849 522.636 448.29 519.659C449.852 527.239 450.634 531.031 452.199 538.611C428.785 543.863 406.214 550.415 383.613 558.508C380.814 551.102 379.413 547.397 376.616 539.991Z" fill="#FF9710"/>
<path d="M498.876 496.395C496.804 487.346 495.738 482.826 493.552 473.797C492.009 473.949 491.238 474.027 489.696 474.19C489.383 483.477 489.257 488.119 489.059 497.399C492.982 496.957 494.946 496.757 498.876 496.395ZM520.045 452.396C526.455 474.656 532.32 497.091 537.367 519.703C537.419 523.551 537.445 525.476 537.498 529.322C524.973 529.493 518.71 529.794 506.218 530.831C504.961 524.675 504.32 521.601 503.012 515.454C497.349 515.947 494.521 516.236 488.87 516.901C488.776 523.193 488.741 526.338 488.702 532.626C476.306 534.141 470.123 535.114 457.829 537.488C457.099 533.709 456.734 531.819 456.004 528.041C456.467 504.876 457.506 481.707 459.371 458.61C479.596 455.674 499.645 453.62 520.045 452.396Z" fill="#FF9710"/>
<path d="M581.674 472.752C581.243 478.531 581.027 481.42 580.596 487.198C586.037 487.605 588.757 487.845 594.188 488.401C594.778 482.637 595.073 479.755 595.664 473.99C590.073 473.418 587.275 473.171 581.674 472.752ZM619.618 457.342C628.089 458.568 633.365 463.558 632.403 469.115C630.33 481.101 629.293 487.093 627.218 499.081C626.596 502.676 622.125 506.043 617 506.261C620 514.422 621.414 518.512 624.074 526.709C623.405 530.498 623.07 532.393 622.4 536.183C610.303 534.046 604.225 533.185 592.04 531.875C589.711 521.926 588.456 516.957 585.763 507.037C583.121 506.802 581.798 506.695 579.154 506.498C578.435 516.114 578.076 520.923 577.358 530.538C564.86 529.605 558.595 529.355 546.071 529.288C546.21 503.485 546.348 477.681 546.486 451.878C571.087 452.384 595.225 454.188 619.618 457.342Z" fill="#FF9710"/>
<path d="M676.642 488.956C672.621 503.861 670.611 511.313 666.591 526.219C671.644 527.582 674.162 528.298 679.184 529.803C683.616 515.016 685.832 507.621 690.263 492.834C684.831 491.205 682.106 490.429 676.642 488.956ZM643.24 540.371C635.946 538.726 631.633 533.854 632.719 528.321L643.926 471.243C645.012 465.708 651.726 462.93 660.27 464.856C679.469 469.489 698.216 474.83 716.975 481.007C725.317 483.892 729.63 489.82 727.637 495.094C720.783 513.233 713.931 531.372 707.076 549.509C705.083 554.785 698.789 556.628 691.666 554.163C675.796 548.673 659.622 544.066 643.24 540.371Z" fill="#FF9710"/>
<path d="M537.853 193.501C507.778 192.899 477.85 195.045 448.054 198.81C422.693 202.014 397.593 206.67 372.629 212.351C339.333 219.928 306.954 230.282 274.956 241.985C268.273 244.429 261.802 247.466 255.258 250.286C252.339 251.545 250.315 251.19 249.193 247.827C247.722 243.418 246.162 239.024 244.335 234.756C243.15 231.99 245.384 230.989 246.726 230.534C257.012 227.038 266.784 221.705 276.911 218.63C297.362 212.419 317.53 205.207 338.256 199.778C350.127 196.667 362.035 193.093 373.932 190.548C386.938 187.767 400.19 185.415 413.401 183.237C470.423 173.832 527.733 171.193 585.392 174.154C610.113 175.424 634.634 178.508 659.109 181.888C672.157 183.689 685.029 186.77 697.973 189.315C712.039 192.08 725.871 195.78 739.739 199.397C762.68 205.379 785.024 213.066 807.264 221.174C816.214 224.437 825.002 228.051 833.768 231.749C835.051 232.291 836.7 232.309 835.684 234.364C833.398 238.994 832.347 244.108 829.84 248.685C828.618 250.917 827.293 251.411 825.266 250.495C810.938 244.028 796.176 238.685 781.343 233.546C761.855 226.792 742.099 220.949 722.103 215.854C704.961 211.486 687.709 207.654 670.296 204.632C650.789 201.246 631.16 198.749 611.451 196.634C586.944 194.004 562.415 193.693 537.853 193.501Z" fill="#FF9710"/>
<path d="M661.779 604.809C661.934 604.383 662.089 603.938 662.242 603.514C662.242 603.493 662.263 603.474 662.263 603.456C662.533 602.738 662.804 602.004 663.152 601.308C663.578 600.458 662.881 600.458 662.359 600.225C658.742 598.716 655.107 597.208 651.393 595.874C642.206 592.527 632.961 589.355 623.484 586.879C617.739 585.391 612.015 583.863 606.212 582.721C600.854 581.676 595.535 580.4 590.14 579.646C580.024 578.254 569.87 576.976 559.657 576.454C535.81 575.236 512.117 576.32 488.54 580.207C483.066 581.115 477.592 582.083 472.216 583.224C467.283 584.268 462.372 585.758 457.458 587.034C448.89 589.278 440.553 592.256 432.102 594.81C427.905 596.085 423.863 598.292 419.607 599.742C419.067 599.916 418.138 600.342 418.622 601.482C419.22 602.855 419.743 604.267 420.226 605.699L421.039 607.69C421.542 608.291 422.238 608.271 423.147 607.885C425.855 606.724 428.524 605.467 431.289 604.461C434.694 603.224 438.098 602.024 441.521 600.864V600.843C451.424 597.498 461.443 594.539 471.675 592.218C482.002 589.877 492.369 587.963 502.872 586.628C515.192 585.081 527.552 584.191 539.988 584.442C550.161 584.52 560.296 584.655 570.431 585.739C578.573 586.608 586.696 587.634 594.762 589.045C601.957 590.284 609.094 591.869 616.192 593.668C624.45 595.776 632.613 598.193 640.678 600.979C640.872 601.037 641.065 601.114 641.258 601.172V601.192L661.779 604.809Z" fill="#FF9710"/>
<path d="M427.207 600.167C428.349 599.741 429.548 599.431 430.651 598.91C437.497 595.583 439.412 595.486 441.52 600.844V600.863C441.887 601.791 442.255 602.875 442.662 604.15C446.626 616.626 452.506 628.328 457.476 640.377C465.135 658.906 473.123 677.299 480.957 695.751C487.881 712.095 494.766 728.477 501.671 744.839C510.626 766.017 519.562 787.196 528.517 808.376C531.92 816.401 535.712 824.273 538.362 832.61C538.729 833.789 539.232 835.51 540.992 835.433C542.461 835.375 542.674 833.828 543.294 832.823C544.068 831.526 544.318 829.767 546.505 829.941C547.955 830.038 548.419 828.76 548.032 827.794C545.75 821.778 549.985 817.349 551.939 812.611C563.003 785.688 574.433 758.919 585.805 732.132C594.78 710.953 603.89 689.833 612.864 668.655C622.38 646.199 631.876 623.724 641.256 601.192V601.173C641.663 600.205 642.069 599.257 642.474 598.291C643.79 595.157 644.739 593.494 648.509 595.622C652.088 597.652 656.169 598.775 660.017 600.321C661.817 601.037 661.97 604.615 661.701 605.254C656.769 616.587 652.088 628.017 647.292 639.391C640.347 655.889 633.366 672.367 626.383 688.846C620.659 702.328 614.875 715.788 609.17 729.289C601.24 747.992 593.387 766.733 585.457 785.436C576.541 806.421 567.509 827.349 558.65 848.353C552.964 861.796 547.452 875.315 541.263 890.286C536.718 879.86 532.617 870.886 528.865 861.758C523.217 848.044 516.99 834.583 511.438 820.849C504.805 804.39 497.784 788.105 490.841 771.782C485.038 758.147 479.004 744.607 473.278 730.952C466.219 714.126 459.7 697.066 452.332 680.375C446.51 667.242 441.268 653.858 435.214 640.802C431.23 632.177 421.54 608.695 421.038 607.691C421.038 607.691 421.404 602.352 427.207 600.167Z" fill="#FF9710"/>
<path d="M541.081 405.98C569.678 404.983 598.472 408.174 627.057 412.745C651.745 416.691 676.066 422.543 699.896 430.353C713.808 434.913 727.521 439.94 741.15 445.258C744.64 446.618 746.235 447.876 743.863 451.801C741.809 455.202 740.42 459.07 739.183 462.878C738.321 465.534 737.354 466.248 734.687 465.065C715.661 456.629 695.914 450.201 675.938 444.484C666.15 441.683 656.031 440.206 646.119 437.991C638.343 436.252 630.742 434.252 622.733 433.421C611.994 432.306 601.429 429.503 590.688 428.384C577.968 427.059 565.142 426.167 552.358 426.135C529.453 426.077 506.496 426.004 483.729 429.073C469.24 431.024 454.662 432.538 440.366 435.715C407.872 442.934 375.83 451.675 345.213 464.996C343.002 465.96 341.939 466.07 341.024 463.328C339.534 458.867 337.644 454.502 335.501 450.31C334.239 447.842 334.961 447.069 337.163 446.125C349.973 440.638 362.998 435.71 376.25 431.449C389.718 427.118 403.335 423.266 417.117 420.009C433.314 416.181 449.641 413.063 466.131 410.846C490.842 407.524 515.631 405.206 541.081 405.98Z" fill="#FF9710"/>
<path d="M540.757 688.332C518.805 688.302 500.159 669.411 500.319 647.362C500.477 625.469 518.902 607.25 540.936 607.196C563.208 607.142 581.724 625.379 581.889 647.533C582.055 669.68 563.22 688.362 540.757 688.332Z" fill="#FF9710"/>
</svg>
